<?xml version="1.0" encoding="UTF-8" standalone="no"?>
<svg
   width="900"
   height="900"
   viewBox="0 0 900 900"
   version="1.1"
   id="svg1"
   sodipodi:docname="icon.svg"
   inkscape:version="1.3.2 (091e20e, 2023-11-25, custom)"
   xmlns:inkscape="http://www.inkscape.org/namespaces/inkscape"
   xmlns:sodipodi="http://sodipodi.sourceforge.net/DTD/sodipodi-0.dtd"
   xmlns="http://www.w3.org/2000/svg"
   xmlns:svg="http://www.w3.org/2000/svg">
  <sodipodi:namedview
     id="namedview1"
     pagecolor="#ffffff"
     bordercolor="#000000"
     borderopacity="0.25"
     inkscape:showpageshadow="2"
     inkscape:pageopacity="0.0"
     inkscape:pagecheckerboard="0"
     inkscape:deskcolor="#d1d1d1"
     showgrid="false"
     inkscape:zoom="0.5"
     inkscape:cx="249"
     inkscape:cy="403"
     inkscape:window-width="1600"
     inkscape:window-height="921"
     inkscape:window-x="-7"
     inkscape:window-y="387"
     inkscape:window-maximized="1"
     inkscape:current-layer="svg1" />
  <defs
     id="defs1">
    <style
       id="style1">
      .cls-1 {
        fill: #fff;
      }

      .cls-1, .cls-2, .cls-3 {
        fill-rule: evenodd;
      }

      .cls-2 {
        fill: #40beed;
      }

      .cls-3 {
        fill: #0083c4;
      }
    </style>
  </defs>
  <ellipse
     style="fill:#102142;fill-opacity:1;stroke:none;stroke-width:1"
     id="path1"
     cx="450"
     cy="449.99997"
     rx="450"
     ry="449.99997" />
  <path
     id="Color_Fill_2"
     data-name="Color Fill 2"
     class="cls-1"
     d="M 717.80266,225.21365 H 198.14881 c -0.57821,-36.1941 0.0155,-63.86077 0,-95.32126 2.18787,-23.52828 42.55363,-15.93765 259.82692,-14.89437 233.35734,1.12018 258.43317,-4.89036 259.82693,14.89363 0.9516,33.75705 -0.9516,61.56569 0,95.322 z m -245.55291,13.93981 c 221.76289,-0.3697 240.96866,-4.00678 242.69515,17.87264 0.95234,186.65275 1.90394,319.17295 2.85554,505.8257 H 195.29326 c 1.71983,-267.35249 1.49431,-404.9368 2.85555,-499.86766 1.09874,-25.98454 30.49188,-23.42402 274.10315,-23.83068 z M 275.2403,141.80699 c 17.81349,0 25.50911,18.32885 25.69691,26.80896 0.24178,10.96079 -7.16695,26.06145 -25.69691,26.80897 -17.80093,0.71795 -25.57788,-18.85456 -25.69766,-26.80897 -0.17894,-11.87985 7.88343,-26.80896 25.69766,-26.80896 z m 77.09148,0 c 17.81424,0 25.50912,18.32885 25.69692,26.80896 0.24178,10.96079 -7.16696,26.06145 -25.69692,26.80897 -17.80092,0.71795 -25.57713,-18.85456 -25.69765,-26.80897 -0.17671,-11.87985 7.88268,-26.80896 25.69765,-26.80896 z m 105.64395,195.64379 c 139.52375,0.0917 161.14216,144.60042 161.40982,153.07906 1.64663,52.50367 -16.54247,191.11943 -167.12016,192.46439 -141.65321,1.26585 -164.41177,-151.71931 -163.43428,-182.3894 0.37857,-11.87541 18.39761,-163.24944 169.14462,-163.15109 z"
     style="display:inline;stroke-width:0.739395" />
  <path
     id="Color_Fill_4"
     data-name="Color Fill 4"
     class="cls-2"
     d="m 448.89153,492.23858 c 19.83426,29.94548 52.54876,35.49537 71.54751,-3.72285 25.66956,30.1917 59.06949,10.96301 64.73399,-22.33637 4.06667,8.5962 6.43273,27.31545 7.14181,36.11943 4.49996,55.77992 -27.71029,174.43869 -146.84374,173.41019 -124.52957,-1.07582 -141.5423,-129.30901 -139.49491,-161.94514 2.49028,-39.67591 17.85785,-33.21434 20.2594,-47.58448 2.98937,26.29361 22.4325,56.80916 51.10548,26.05922 16.35983,34.18443 53.28668,29.35544 71.55046,0 z"
     style="display:inline;stroke-width:0.739395" />
  <path
     id="Color_Fill_3"
     data-name="Color Fill 3"
     class="cls-3"
     d="M 456.89622,696.5429 C 334.84658,695.94473 268.4497,601.41092 268.4497,514.8367 c 0,-82.40848 59.00368,-184.49076 174.17029,-190.64326 128.10822,-6.84384 195.58241,99.69182 194.15612,175.7489 -3.08327,164.4332 -139.14886,196.8002 -179.87989,196.60056 z M 578.30479,515.11619 c 0.5442,59.66913 -35.43178,116.09529 -134.05222,117.39515 -87.43932,1.15198 -116.4014,-75.13062 -117.38406,-114.41835 -1.15715,-46.31124 13.07102,-114.80061 112.02197,-130.15413 68.18548,-4.63305 138.61724,39.63894 139.41505,127.17733 z"
     style="display:inline;stroke-width:0.739395" />
</svg>
