<svg xmlns="http://www.w3.org/2000/svg" width="707" height="879" viewBox="0 0 707 879">
  <defs>
    <style>
      .cls-1 {
        fill: #fff;
      }

      .cls-1, .cls-2, .cls-3 {
        fill-rule: evenodd;
      }

      .cls-2 {
        fill: #40beed;
      }

      .cls-3 {
        fill: #0083c4;
      }
    </style>
  </defs>
  <path id="Color_Fill_2" data-name="Color Fill 2" class="cls-1" d="M706.878,151.527H4.068c-0.782-48.951.021-86.369,0-128.918C7.027-9.212,61.62,1.054,355.473,2.465c315.606,1.515,349.52-6.614,351.405,20.143C708.165,68.263,705.591,105.873,706.878,151.527Zm-332.1,18.853c299.925-.5,325.9-5.419,328.235,24.172,1.288,252.44,2.575,431.668,3.862,684.108H0.206C2.532,517.077,2.227,331,4.068,202.61,5.554,167.467,45.307,170.93,374.781,170.38ZM108.331,38.723c24.092,0,34.5,24.789,34.754,36.258,0.327,14.824-9.693,35.247-34.754,36.258-24.075.971-34.593-25.5-34.755-36.258C73.334,58.914,84.238,38.723,108.331,38.723Zm104.263,0c24.093,0,34.5,24.789,34.754,36.258,0.327,14.824-9.693,35.247-34.754,36.258-24.075.971-34.592-25.5-34.755-36.258C177.6,58.914,188.5,38.723,212.594,38.723Zm142.879,264.6c188.7,0.124,217.938,195.566,218.3,207.033C576,581.365,551.4,768.837,347.75,770.656c-191.58,1.712-222.36-205.194-221.038-246.674C127.224,507.921,151.594,303.194,355.473,303.327Z"/>
  <path id="Color_Fill_4" data-name="Color Fill 4" class="cls-2" d="M343.187,512.667c26.825,40.5,71.07,48.006,96.765-5.035,34.717,40.833,79.889,14.827,87.55-30.209,5.5,11.626,8.7,36.943,9.659,48.85,6.086,75.44-37.477,235.921-198.6,234.53C170.14,759.348,147.131,585.918,149.9,541.779c3.368-53.66,24.152-44.921,27.4-64.356,4.043,35.561,30.339,76.832,69.118,35.244C268.544,558.9,318.486,552.369,343.187,512.667Z"/>
  <path id="Color_Fill_3" data-name="Color Fill 3" class="cls-3" d="M354.013,788.98C188.946,788.171,99.147,660.318,99.147,543.23c0-111.454,79.8-249.516,235.558-257.837,173.261-9.256,264.517,134.829,262.588,237.693C593.123,745.475,409.1,789.25,354.013,788.98Zm164.2-245.372c0.736,80.7-47.92,157.014-181.3,158.772-118.258,1.558-157.428-101.611-158.757-154.746C176.591,485,195.834,392.371,329.661,371.606,421.879,365.34,517.135,425.216,518.214,543.608Z"/>
</svg>
